<?xml version="1.0" standalone="no"?>
<!DOCTYPE svg PUBLIC "-//W3C//DTD SVG 20010904//EN"
 "http://www.w3.org/TR/2001/REC-SVG-20010904/DTD/svg10.dtd">
<svg version="1.0" xmlns="http://www.w3.org/2000/svg"
 width="1080.000000pt" height="1080.000000pt" viewBox="0 0 1080.000000 1080.000000"
 preserveAspectRatio="xMidYMid meet">
<metadata>
Created by potrace 1.11, written by Peter Selinger 2001-2013
</metadata>
<g transform="translate(0.000000,1080.000000) scale(0.100000,-0.100000)"
fill="#000000" stroke="none">
<path d="M2580 8543 c-286 -44 -519 -159 -696 -346 -208 -218 -304 -477 -304
-814 1 -353 104 -618 328 -840 155 -154 338 -248 588 -304 96 -22 124 -23 824
-29 496 -4 735 -9 757 -17 139 -49 238 -156 272 -297 15 -63 15 -199 0 -262
-35 -143 -125 -242 -265 -291 -46 -16 -173 -18 -1794 -21 l-1745 -3 -265 -346
c-146 -190 -269 -352 -273 -359 -7 -12 285 -14 2035 -11 1878 3 2049 4 2118
20 121 27 198 55 315 112 310 151 502 395 583 740 22 95 25 134 26 280 1 187
-11 271 -55 406 -126 388 -429 650 -874 756 -61 14 -168 17 -800 23 -803 7
-778 5 -877 70 -94 62 -150 161 -170 299 -28 199 56 397 201 470 101 52 79 51
1186 51 l1031 0 269 351 c149 193 272 355 273 360 3 9 -2634 11 -2688 2z"/>
<path d="M5165 8198 c-148 -193 -271 -355 -273 -360 -2 -4 54 -8 125 -8 l128
1 260 340 c143 186 266 348 274 359 13 20 11 20 -115 20 l-129 0 -270 -352z"/>
<path d="M5611 8198 c-149 -194 -271 -356 -271 -360 0 -5 56 -8 124 -8 l124 0
228 298 c126 163 250 325 277 360 l49 62 -131 0 -130 0 -270 -352z"/>
<path d="M6035 8199 c-149 -194 -271 -356 -273 -360 -2 -5 345 -9 772 -9 l776
0 0 -1615 0 -1615 360 0 360 0 0 1615 0 1615 1108 0 1107 0 265 346 c146 191
269 353 273 360 7 12 -326 14 -2235 14 l-2244 0 -269 -351z"/>
<path d="M515 2957 c-3 -6 -4 -167 -3 -357 l3 -345 38 -3 37 -3 0 155 0 156
185 0 185 0 0 30 0 30 -185 0 -185 0 0 140 0 140 205 0 205 0 0 35 0 35 -240
0 c-184 0 -242 -3 -245 -13z"/>
<path d="M2090 2611 l0 -361 35 0 35 0 -2 358 -3 357 -32 3 -33 3 0 -360z"/>
<path d="M3210 2935 l0 -35 125 0 125 0 0 -325 0 -325 35 0 35 0 0 325 0 325
125 0 125 0 0 35 0 35 -285 0 -285 0 0 -35z"/>
<path d="M4837 2963 c-4 -3 -7 -165 -7 -360 l0 -353 35 0 35 0 2 292 3 292
230 -292 c216 -274 232 -292 260 -289 l30 2 0 355 0 355 -35 0 -35 0 -5 -287
-5 -288 -230 290 c-224 283 -251 311 -278 283z"/>
<path d="M6590 2610 l0 -360 250 0 250 0 0 30 0 30 -215 0 -215 0 0 135 0 135
185 0 185 0 0 30 0 30 -185 0 -185 0 0 130 0 130 205 0 205 0 0 35 0 35 -240
0 -240 0 0 -360z"/>
<path d="M8292 2955 c-178 -55 -201 -263 -37 -335 22 -10 91 -33 154 -51 137
-40 171 -66 171 -133 0 -52 -21 -83 -74 -107 -83 -38 -249 -16 -325 43 -23 18
-24 18 -38 -2 -22 -32 -9 -48 64 -83 57 -26 83 -32 159 -35 183 -8 284 60 284
190 0 103 -40 137 -230 193 -139 41 -173 57 -191 92 -17 32 -15 88 5 118 40
62 175 84 281 46 33 -12 67 -24 76 -27 20 -7 33 34 17 53 -6 7 -40 22 -75 33
-75 23 -177 25 -241 5z"/>
<path d="M9851 2959 c-103 -32 -156 -103 -149 -201 4 -50 9 -63 38 -93 37 -38
63 -49 220 -95 123 -36 147 -50 166 -97 19 -44 11 -83 -24 -116 -38 -36 -73
-47 -151 -47 -79 0 -153 20 -206 55 -20 14 -38 25 -40 23 -1 -2 -8 -13 -14
-26 -15 -28 -4 -39 79 -80 50 -25 65 -27 170 -27 100 0 121 3 158 23 82 43
119 110 106 194 -5 31 -17 53 -43 79 -36 36 -60 46 -253 103 -66 20 -92 33
-112 57 -41 48 -33 122 18 159 60 44 167 52 256 19 30 -11 62 -22 71 -25 10
-3 19 4 27 21 12 25 11 27 -45 52 -45 20 -78 26 -148 29 -49 2 -105 -1 -124
-7z"/>
</g>
</svg>
