<?xml version="1.0" encoding="UTF-8" standalone="no"?><!DOCTYPE svg PUBLIC "-//W3C//DTD SVG 1.1//EN" "http://www.w3.org/Graphics/SVG/1.1/DTD/svg11.dtd"><svg width="100%" height="100%" viewBox="0 0 14 24" version="1.1" xmlns="http://www.w3.org/2000/svg" xmlns:xlink="http://www.w3.org/1999/xlink" xml:space="preserve" xmlns:serif="http://www.serif.com/" style="fill-rule:evenodd;clip-rule:evenodd;stroke-linejoin:round;stroke-miterlimit:1.41421;"><path d="M14,2c0,-1.104 -0.896,-2 -2,-2l-10,0c-1.104,0 -2,0.896 -2,2l0,20c0,1.104 0.896,2 2,2l10,0c1.104,0 2,-0.896 2,-2l0,-20Zm-8.5,0l3,0c0.276,0 0.5,0.224 0.5,0.5c0,0.276 -0.224,0.5 -0.5,0.5l-3,0c-0.276,0 -0.5,-0.224 -0.5,-0.5c0,-0.276 0.224,-0.5 0.5,-0.5Zm1.5,20c-0.553,0 -1,-0.448 -1,-1c0,-0.552 0.447,-1 1,-1c0.552,0 0.999,0.448 0.999,1c0,0.552 -0.447,1 -0.999,1Zm5,-3l-10,0l0,-14.024l10,0l0,14.024Z" style="fill-rule:nonzero;"/></svg>